<svg width="512" height="410" viewBox="0 0 512 410" fill="none" xmlns="http://www.w3.org/2000/svg">
<path d="M59.734 51.1997H42.667V332.8H59.734V51.1997Z" fill="white"/>
<path d="M110.933 51.1997H85.333V290.133H110.933V51.1997Z" fill="white"/>
<path d="M153.6 51.1997H136.533V290.133H153.6V51.1997Z" fill="white"/>
<path d="M196.267 51.1997H170.667V290.133H196.267V51.1997Z" fill="white"/>
<path d="M230.4 51.1997H213.333V290.133H230.4V51.1997Z" fill="white"/>
<path d="M8.533 0C3.413 0 0 3.413 0 8.533V51.2H17.067V17.067H51.2V0H8.533Z" fill="white"/>
<path d="M264.534 51.1997H247.467V332.8H264.534V51.1997Z" fill="white"/>
<path d="M349.867 51.1997H324.267V290.133H349.867V51.1997Z" fill="white"/>
<path d="M392.534 51.1997H375.467V290.133H392.534V51.1997Z" fill="white"/>
<path d="M435.2 51.1997H409.6V290.133H435.2V51.1997Z" fill="white"/>
<path d="M469.334 51.1997H452.267V332.8H469.334V51.1997Z" fill="white"/>
<path d="M17.067 392.533V358.4H0V401.067C0 406.187 3.413 409.6 8.533 409.6H51.2V392.533H17.067V392.533Z" fill="white"/>
<path d="M494.933 358.4V392.533H460.8V409.6H503.467C508.587 409.6 512 406.187 512 401.067V358.4H494.933Z" fill="white"/>
<path d="M503.467 0H460.8V17.067H494.933V51.2H512V8.533C512 3.413 508.587 0 503.467 0Z" fill="white"/>
<path d="M93.8668 307.2H76.7998V332.8H93.8668V307.2Z" fill="white"/>
<path d="M128 307.2H110.933V332.8H128V307.2Z" fill="white"/>
<path d="M162.134 307.2H145.067V332.8H162.134V307.2Z" fill="white"/>
<path d="M196.267 307.2H179.2V332.8H196.267V307.2Z" fill="white"/>
<path d="M230.4 307.2H213.333V332.8H230.4V307.2Z" fill="white"/>
<path d="M298.667 307.2H281.6V332.8H298.667V307.2Z" fill="white"/>
<path d="M332.8 307.2H315.733V332.8H332.8V307.2Z" fill="white"/>
<path d="M366.934 307.2H349.867V332.8H366.934V307.2Z" fill="white"/>
<path d="M401.067 307.2H384V332.8H401.067V307.2Z" fill="white"/>
<path d="M435.2 307.2H418.133V332.8H435.2V307.2Z" fill="white"/>
<path d="M307.2 51.1997H290.133V290.133H307.2V51.1997Z" fill="white"/>
</svg>
