<?xml version="1.0"?>
<svg xmlns="http://www.w3.org/2000/svg" viewBox="0 0 64 64" width="512px" height="512px"><g><g id="Human-Brain"><path d="M32,46a3,3,0,0,0,3-3V37H33v6a1,1,0,0,1-2,0V37H29v6A3,3,0,0,0,32,46Z" data-original="#000000" class="active-path" data-old_color="#000000" fill="#00D138"/><path d="M41,35a3,3,0,0,0-3,3h2a1,1,0,0,1,2,0h2A3,3,0,0,0,41,35Z" data-original="#000000" class="active-path" data-old_color="#000000" fill="#00D138"/><path d="M23,35a3,3,0,0,0-3,3h2a1,1,0,0,1,2,0h2A3,3,0,0,0,23,35Z" data-original="#000000" class="active-path" data-old_color="#000000" fill="#00D138"/><path d="M51,30.1V28c0-1.209-1.083-2.2-3.263-3H49a1,1,0,0,0,.707-.293l1-1A1,1,0,0,0,51,23V20.721l2.316-.772A1,1,0,0,0,54,19V15a1,1,0,0,0-.553-.895L52,13.382V11a1,1,0,0,0-.757-.97L48,9.219V8a1,1,0,0,0-.293-.707l-1-1A1,1,0,0,0,46,6H43a1,1,0,0,0-.707.293l-2,2A1,1,0,0,0,40,9v8H38a1,1,0,0,0-.707.293l-2,2A1,1,0,0,0,35,20v2h2V20.414L38.414,19H40v4.425c-2.2-.241-4.58-.38-7-.41v-9.6L35.414,11H38V9H35a1,1,0,0,0-.707.293L33,10.586V7.816a3,3,0,1,0-2,0v6.84l-1.363-1.363A1,1,0,0,0,28.93,13H26v2h2.516L31,17.484v5.528c-.693.008-1.362.024-2,.048V22a1,1,0,0,0-.293-.707l-2-2A1,1,0,0,0,26,19H25V9a1,1,0,0,0-.293-.707l-2-2A1,1,0,0,0,22,6H19a1,1,0,0,0-.707.293l-1,1A1,1,0,0,0,17,8V9.219l-3.243.811A1,1,0,0,0,13,11v2.382l-1.447.723A1,1,0,0,0,11,15v4a1,1,0,0,0,.684.949L14,20.721V23a1,1,0,0,0,.293.707l1,1A1,1,0,0,0,16,25h.253C14.074,25.8,13,26.793,13,28v2.1a4.995,4.995,0,0,0,.1,9.808A19,19,0,0,0,21,53.463V61a1,1,0,0,0,1,1H42a1,1,0,0,0,1-1V53.463a19,19,0,0,0,7.9-13.554A4.995,4.995,0,0,0,51,30.1ZM42,9.414,43.414,8h2.172L46,8.414V9.586l-1.707,1.707A1,1,0,0,0,44,12v2h2V12.414l1.307-1.307L50,11.781V13H49v2h1.764L52,15.618v2.661l-1.73.577L49,17.586V17H47v1a1,1,0,0,0,.293.707L49,20.414v2.172L48.586,23H47a1,1,0,0,0-.832.445L44.465,26H43.414L42,24.586ZM32,4a1,1,0,1,1-1,1A1,1,0,0,1,32,4ZM25.586,21,27,22.414v.749c-.678.043-1.343.095-2,.157V21ZM16,20.414l1.707-1.707A1,1,0,0,0,18,18V17H16v.586l-1.27,1.27L13,18.279V15.618L14.236,15H16V13H15V11.781l2.693-.674L19,12.414V14h2V12a1,1,0,0,0-.293-.707L19,9.586V8.414L19.414,8h2.172L23,9.414V24.586L21.586,26H20.535l-1.7-2.555A1,1,0,0,0,18,23H16.414L16,22.586Zm2.411,6.006.757,1.135A1,1,0,0,0,20,28h2a1,1,0,0,0,.707-.293l2-2a.984.984,0,0,0,.226-.372c1.015-.1,2.053-.183,3.121-.236.922-.051,1.909-.075,2.946-.087V29h2V25.015c2.472.032,4.9.179,7.121.434a.994.994,0,0,0,.172.258l2,2A1,1,0,0,0,43,28h2a1,1,0,0,0,.832-.445l.6-.9c2.273.72,2.56,1.324,2.572,1.324C48.7,29.037,42.6,31,32,31s-16.69-1.959-17-2.975v-.008C15.068,27.808,15.859,27.112,18.411,26.42ZM11,35a3,3,0,0,1,2-2.816v5.632A3,3,0,0,1,11,35ZM41,60H23V54.727a18.954,18.954,0,0,0,18,0Zm-9-5A17.019,17.019,0,0,1,15,38V30.458C18.7,32.41,26.718,33,32,33s13.3-.59,17-2.542V38A17.019,17.019,0,0,1,32,55ZM51,37.816V32.184a2.982,2.982,0,0,1,0,5.632Z" data-original="#000000" class="active-path" data-old_color="#000000" fill="#00D138"/><path d="M32,49c-2.71,0-5-1.374-5-3H25c0,2.8,3.075,5,7,5s7-2.2,7-5H37C37,47.626,34.71,49,32,49Z" data-original="#000000" class="active-path" data-old_color="#000000" fill="#00D138"/><path d="M59,8a3,3,0,1,0-3-3A3,3,0,0,0,59,8Zm0-4a1,1,0,1,1-1,1A1,1,0,0,1,59,4Z" data-original="#000000" class="active-path" data-old_color="#000000" fill="#00D138"/><path d="M59,14a3,3,0,1,0,3,3A3,3,0,0,0,59,14Zm0,4a1,1,0,1,1,1-1A1,1,0,0,1,59,18Z" data-original="#000000" class="active-path" data-old_color="#000000" fill="#00D138"/><path d="M52.414,6H54V4H52a1,1,0,0,0-.707.293l-3,3,1.414,1.414Z" data-original="#000000" class="active-path" data-old_color="#000000" fill="#00D138"/><path d="M5,2A3,3,0,1,0,8,5,3,3,0,0,0,5,2ZM5,6A1,1,0,1,1,6,5,1,1,0,0,1,5,6Z" data-original="#000000" class="active-path" data-old_color="#000000" fill="#00D138"/><path d="M5,14a3,3,0,1,0,3,3A3,3,0,0,0,5,14Zm0,4a1,1,0,1,1,1-1A1,1,0,0,1,5,18Z" data-original="#000000" class="active-path" data-old_color="#000000" fill="#00D138"/><path d="M14.293,8.707l1.414-1.414-3-3A1,1,0,0,0,12,4H10V6h1.586Z" data-original="#000000" class="active-path" data-old_color="#000000" fill="#00D138"/><path d="M20.293,22.707l1.414-1.414L21,20.586V18H19v3a1,1,0,0,0,.293.707Z" data-original="#000000" class="active-path" data-old_color="#000000" fill="#00D138"/><path d="M45.707,21.707A1,1,0,0,0,46,21V18H44v2.586l-.707.707,1.414,1.414Z" data-original="#000000" class="active-path" data-old_color="#000000" fill="#00D138"/></g></g> </svg>
