<svg width="512" height="342" viewBox="0 0 512 342" fill="none" xmlns="http://www.w3.org/2000/svg">
<path d="M458.667 0H53.333C23.936 0 0 23.936 0 53.334V288.001C0 317.398 23.936 341.334 53.333 341.334H458.666C488.063 341.334 511.999 317.398 511.999 288.001V53.334C512 23.936 488.064 0 458.667 0ZM490.667 288C490.667 305.643 476.31 320 458.667 320H53.333C35.69 320 21.333 305.643 21.333 288V53.334C21.333 35.691 35.69 21.334 53.333 21.334H458.666C476.309 21.334 490.666 35.691 490.666 53.334V288H490.667Z" fill="white"/>
<path d="M501.333 64H10.667C4.779 64 0 68.779 0 74.667V138.667C0 144.555 4.779 149.334 10.667 149.334H501.334C507.222 149.334 512.001 144.555 512.001 138.667V74.667C512 68.779 507.221 64 501.333 64ZM490.667 128H21.333V85.333H490.666V128H490.667Z" fill="white"/>
<path d="M202.667 213.334H74.667C68.779 213.334 64 218.113 64 224.001C64 229.889 68.779 234.667 74.667 234.667H202.667C208.555 234.667 213.334 229.888 213.334 224C213.334 218.112 208.555 213.334 202.667 213.334Z" fill="white"/>
<path d="M202.667 256H74.667C68.779 256 64 260.779 64 266.667C64 272.555 68.779 277.334 74.667 277.334H202.667C208.555 277.334 213.334 272.555 213.334 266.667C213.333 260.779 208.555 256 202.667 256Z" fill="white"/>
<path d="M416 192H394.667C377.024 192 362.667 206.357 362.667 224V245.333C362.667 262.976 377.024 277.333 394.667 277.333H416C433.643 277.333 448 262.976 448 245.333V224C448 206.358 433.643 192 416 192ZM426.667 245.334C426.667 251.222 421.888 256.001 416 256.001H394.667C388.779 256.001 384 251.222 384 245.334V224.001C384 218.113 388.779 213.334 394.667 213.334H416C421.888 213.334 426.667 218.113 426.667 224.001V245.334Z" fill="white"/>
</svg>
