<svg width="437" height="174" viewBox="0 0 437 174" fill="none" xmlns="http://www.w3.org/2000/svg">
<g clip-path="url(#clip0)">
<path d="M207.2 84.6V135.4H191.1V10H233.8C244.1 9.8 254 13.7 261.5 20.9C269 27.6 273.2 37.3 273 47.3C273.2 57.4 269 67.1 261.5 73.9C254 81 244.8 84.6 233.9 84.6H207.2V84.6ZM207.2 25.4V69.2H234.2C240.2 69.4 246 67 250.1 62.7C258.6 54.5 258.7 41 250.5 32.5L250.1 32.1C246 27.7 240.2 25.3 234.2 25.5L207.2 25.4V25.4ZM310.1 46.8C322 46.8 331.4 50 338.3 56.3C345.2 62.7 348.6 71.4 348.6 82.5V135.3H333.2V123.4H332.5C325.8 133.2 317 138.1 305.9 138.1C296.5 138.1 288.5 135.3 282.2 129.7C276 124.5 272.5 116.8 272.7 108.7C272.7 99.8 276.1 92.8 282.8 87.5C289.5 82.2 298.5 79.6 309.7 79.6C319.3 79.6 327.1 81.4 333.3 84.8V81.1C333.3 75.6 330.9 70.4 326.7 66.9C322.4 63.1 316.9 61 311.2 61C302.2 61 295.1 64.8 289.8 72.4L275.6 63.5C283.3 52.4 294.8 46.8 310.1 46.8V46.8ZM289.3 109.1C289.3 113.3 291.3 117.2 294.6 119.6C298.2 122.4 302.6 123.9 307.1 123.8C313.9 123.8 320.4 121.1 325.2 116.3C330.5 111.3 333.2 105.4 333.2 98.6C328.2 94.6 321.2 92.6 312.2 92.6C305.7 92.6 300.2 94.2 295.8 97.3C291.5 100.5 289.3 104.4 289.3 109.1V109.1ZM437 49.6L383.2 173.2H366.6L386.6 130L351.2 49.7H368.7L394.2 111.3H394.6L419.5 49.7L437 49.6Z" fill="white"/>
<path d="M142.1 73.6C142.1 68.7 141.7 63.8 140.9 59H73V86.7H111.9C110.3 95.6 105.1 103.6 97.5 108.6V126.6H120.7C134.3 114.1 142.1 95.6 142.1 73.6Z" fill="white"/>
<path d="M72.9992 144C92.3992 144 108.799 137.6 120.699 126.6L97.4992 108.6C90.9992 113 82.6992 115.5 72.9992 115.5C54.1992 115.5 38.2992 102.8 32.5992 85.7998H8.69922V104.4C20.8992 128.6 45.7992 144 72.9992 144Z" fill="white"/>
<path d="M32.5995 85.8002C29.5995 76.9002 29.5995 67.2002 32.5995 58.2002V39.7002H8.69953C3.62119 49.7099 0.974609 60.776 0.974609 72.0002C0.974609 83.2244 3.62119 94.2905 8.69953 104.3L32.5995 85.8002V85.8002Z" fill="white"/>
<path d="M72.9992 28.5C83.2992 28.3 93.1992 32.2 100.599 39.3L121.099 18.8C108.099 6.49996 90.8992 -0.200043 72.9992 -4.27389e-05C45.7992 -4.27389e-05 20.8992 15.4 8.69922 39.7L32.5992 58.3C38.2992 41.2 54.1992 28.5 72.9992 28.5Z" fill="white"/>
</g>
<defs>
<clipPath id="clip0">
<rect width="437" height="174" fill="white"/>
</clipPath>
</defs>
</svg>
