<svg width="427" height="137" viewBox="0 0 427 137" fill="none" xmlns="http://www.w3.org/2000/svg">
<g clip-path="url(#clip0)">
<path d="M123.467 113.719V52.0026C123.462 51.93 123.472 51.8572 123.496 51.7887C123.521 51.7202 123.559 51.6574 123.609 51.6043C123.658 51.5512 123.719 51.5089 123.785 51.48C123.852 51.4512 123.924 51.4364 123.997 51.4365H135.89C136.041 51.4365 136.185 51.4962 136.291 51.6023C136.397 51.7085 136.457 51.8524 136.457 52.0026V74.2425H136.64C138.233 72.3461 140.242 70.8411 142.51 69.8438C144.778 68.8465 147.245 68.3836 149.721 68.4908C159.057 68.4908 162.053 74.5894 162.053 82.6783V113.719C162.053 113.869 161.993 114.013 161.887 114.119C161.781 114.226 161.637 114.285 161.486 114.285H149.721C149.646 114.285 149.573 114.271 149.504 114.242C149.435 114.214 149.373 114.172 149.32 114.119C149.268 114.067 149.226 114.005 149.197 113.936C149.169 113.867 149.154 113.794 149.154 113.719V83.8286C149.154 80.3228 145.5 79.2455 143.162 79.2455C140.823 79.2455 136.53 80.7793 136.53 85.1616V113.719C136.53 113.869 136.47 114.013 136.364 114.119C136.258 114.226 136.114 114.285 135.964 114.285H124.033C123.883 114.285 123.739 114.226 123.633 114.119C123.527 114.013 123.467 113.869 123.467 113.719V113.719Z" fill="white"/>
<path d="M218.14 101.54V80.3594H212.659C212.509 80.3594 212.365 80.2997 212.259 80.1936C212.152 80.0874 212.093 79.9434 212.093 79.7933V72.0696C212.094 71.9525 212.132 71.8387 212.2 71.7439C212.269 71.6491 212.366 71.5779 212.476 71.5401L219.784 69.4038L223.676 57.2248C223.713 57.1444 223.769 57.0743 223.839 57.0202C223.909 56.9662 223.991 56.9298 224.078 56.9143H230.472C230.545 56.9093 230.618 56.9193 230.686 56.9437C230.755 56.968 230.817 57.0062 230.871 57.0559C230.924 57.1056 230.966 57.1657 230.995 57.2324C231.024 57.2992 231.039 57.3711 231.038 57.4439V69.495H240.63C240.78 69.495 240.924 69.5547 241.031 69.6608C241.137 69.767 241.196 69.911 241.196 70.0611V79.8116C241.199 79.8842 241.187 79.9566 241.16 80.0242C241.133 80.0918 241.093 80.1532 241.042 80.2046C240.99 80.256 240.929 80.2962 240.861 80.3229C240.793 80.3495 240.721 80.3619 240.648 80.3594H231.038V100.189C231.038 102.252 232.208 103.512 235.076 103.512H240.557C240.701 103.526 240.834 103.594 240.929 103.703C241.024 103.812 241.074 103.952 241.069 104.097V112.66C241.069 112.775 241.034 112.887 240.968 112.982C240.903 113.076 240.811 113.149 240.703 113.19C237.838 114.508 234.722 115.193 231.568 115.198C222.068 115.18 218.14 109.574 218.14 101.54Z" fill="white"/>
<path d="M403.816 101.541V80.3596H398.335C398.185 80.3596 398.041 80.3 397.934 80.1939C397.828 80.0877 397.769 79.9437 397.769 79.7936V72.0699C397.77 71.9528 397.807 71.839 397.876 71.7442C397.945 71.6493 398.041 71.5781 398.152 71.5404L405.497 69.404L409.388 57.225C409.426 57.1142 409.497 57.0178 409.592 56.9491C409.687 56.8805 409.801 56.8429 409.918 56.8416H416.312C416.385 56.8366 416.458 56.8466 416.526 56.8709C416.595 56.8953 416.658 56.9335 416.711 56.9832C416.764 57.0328 416.806 57.0929 416.835 57.1597C416.864 57.2264 416.879 57.2984 416.879 57.3711V69.404H426.47C426.62 69.404 426.765 69.4637 426.871 69.5698C426.977 69.676 427.037 69.82 427.037 69.9701V79.7206C427.039 79.7932 427.027 79.8656 427 79.9332C426.973 80.0008 426.933 80.0622 426.882 80.1136C426.83 80.165 426.769 80.2052 426.701 80.2319C426.634 80.2585 426.561 80.2709 426.489 80.2684H416.879V100.171C416.879 102.234 418.048 103.494 420.916 103.494H426.397C426.472 103.494 426.545 103.509 426.614 103.537C426.683 103.566 426.745 103.607 426.798 103.66C426.85 103.713 426.892 103.775 426.92 103.844C426.949 103.912 426.964 103.986 426.964 104.06V112.624C426.964 112.739 426.929 112.851 426.863 112.946C426.798 113.04 426.706 113.113 426.598 113.153C423.733 114.472 420.617 115.157 417.463 115.162C407.744 115.18 403.816 109.575 403.816 101.541Z" fill="white"/>
<path d="M249.071 113.719V69.8967C249.071 69.7466 249.131 69.6026 249.237 69.4964C249.343 69.3903 249.487 69.3306 249.638 69.3306H260.344C260.461 69.3319 260.575 69.3695 260.67 69.4382C260.764 69.5069 260.836 69.6033 260.874 69.7141L262.116 74.1694H262.299C263.878 72.2708 265.876 70.7635 268.136 69.7657C270.396 68.7678 272.857 68.3064 275.325 68.4177C281.701 68.4177 284.77 71.2844 286.488 75.7214H286.853C288.344 73.3668 290.434 71.45 292.908 70.1668C295.383 68.8836 298.154 68.28 300.939 68.4177C310.275 68.4177 313.271 74.5163 313.271 82.6052V113.646C313.271 113.796 313.211 113.94 313.105 114.046C312.999 114.153 312.855 114.212 312.705 114.212H300.811C300.661 114.212 300.517 114.153 300.411 114.046C300.304 113.94 300.245 113.796 300.245 113.646V84.0112C300.245 80.5054 296.938 79.1542 294.599 79.1542C291.896 79.1542 287.876 80.8706 287.694 84.8146V113.719C287.699 113.792 287.689 113.865 287.664 113.933C287.64 114.002 287.602 114.064 287.552 114.117C287.502 114.171 287.442 114.213 287.375 114.242C287.308 114.271 287.236 114.285 287.164 114.285H275.197C275.05 114.28 274.911 114.219 274.808 114.113C274.706 114.007 274.649 113.866 274.649 113.719V84.0112C274.649 80.5054 271.141 79.1542 268.583 79.1542C266.907 79.1436 265.292 79.7857 264.082 80.9446C262.871 82.1035 262.159 83.688 262.098 85.3624V113.719C262.098 113.866 262.041 114.007 261.938 114.113C261.836 114.219 261.697 114.28 261.55 114.285H249.656C249.582 114.288 249.507 114.275 249.438 114.249C249.368 114.223 249.304 114.183 249.25 114.132C249.196 114.082 249.152 114.02 249.121 113.953C249.091 113.885 249.074 113.812 249.071 113.737V113.719Z" fill="white"/>
<path d="M321.109 79.2641V71.1204C321.114 70.9915 321.161 70.8679 321.244 70.7688C321.326 70.6697 321.439 70.6007 321.565 70.5726C327.271 69.3287 333.083 68.6378 338.922 68.5093C350.413 68.5093 357.191 71.2847 357.191 83.6828V113.738C357.191 113.888 357.132 114.032 357.025 114.138C356.919 114.244 356.775 114.304 356.625 114.304H345.206C345.084 114.303 344.965 114.261 344.869 114.185C344.773 114.109 344.705 114.003 344.677 113.884L343.452 109.447H343.964C340.73 113.939 336.437 115.198 331.175 115.198C322.735 115.198 318.24 108.643 318.24 100.92C318.24 89.2519 326.772 86.9147 333.148 86.9147H344.11V84.0115C344.11 80.3596 341.37 79.5379 330.956 79.5379C326.553 79.5379 321.821 79.8849 321.62 79.8849C321.473 79.8625 321.34 79.7868 321.246 79.6722C321.151 79.5577 321.102 79.4123 321.109 79.2641V79.2641ZM344.165 94.9671H337.04C333.258 94.9671 330.81 96.4096 330.81 100.445C330.81 104.791 333.934 105.777 336.93 105.777C337.841 105.826 338.752 105.695 339.612 105.393C340.472 105.09 341.264 104.621 341.943 104.012C342.621 103.403 343.173 102.667 343.567 101.845C343.961 101.023 344.189 100.132 344.238 99.2215C344.256 98.9723 344.256 98.7221 344.238 98.4729V94.821L344.165 94.9671Z" fill="white"/>
<path d="M364.756 113.719V69.8967C364.773 69.7627 364.838 69.6393 364.939 69.5489C365.039 69.4585 365.169 69.407 365.304 69.4037H375.9C376.032 69.3979 376.161 69.4415 376.263 69.526C376.364 69.6104 376.43 69.7296 376.448 69.8602L377.709 76.671H377.892C379.216 74.1568 381.215 72.0612 383.664 70.6195C386.113 69.1777 388.917 68.4469 391.759 68.509C391.833 68.509 391.907 68.5237 391.975 68.5521C392.044 68.5806 392.106 68.6223 392.159 68.6748C392.212 68.7274 392.253 68.7898 392.282 68.8585C392.31 68.9271 392.325 69.0007 392.325 69.0751V81.2723C392.325 81.4224 392.265 81.5664 392.159 81.6726C392.053 81.7787 391.909 81.8384 391.759 81.8384H388.726C380.559 81.8384 377.764 85.1068 377.764 89.1421V113.646C377.764 113.793 377.707 113.934 377.605 114.04C377.502 114.146 377.363 114.207 377.216 114.212H365.304C365.17 114.205 365.042 114.153 364.942 114.063C364.843 113.973 364.777 113.852 364.756 113.719V113.719Z" fill="white"/>
<path d="M167.589 91.8447C167.589 77.5659 173.07 68.5093 188.964 68.5093C204.859 68.5093 210.431 77.639 210.431 91.8447C210.431 106.051 204.95 115.18 188.964 115.18C172.978 115.18 167.589 106.215 167.589 91.8447ZM181.62 91.8447C181.62 99.5685 182.753 104.298 188.928 104.298C195.103 104.298 196.364 99.5685 196.364 91.8447C196.364 84.121 195.213 79.4649 188.928 79.4649C182.643 79.4649 181.62 84.121 181.62 91.8447V91.8447Z" fill="white"/>
<path d="M99.0767 87.3891C99.6979 75.1736 95.4228 55.1979 85.2648 38.8557C84.9908 38.4358 84.534 38.6001 84.6254 39.0383C85.3013 41.5216 85.4658 46.0317 81.5195 45.7578C74.5039 45.283 81.757 30.2738 66.3556 19.866C66.2983 19.8119 66.2235 19.7801 66.1447 19.7765C66.066 19.7729 65.9885 19.7977 65.9266 19.8464C65.8646 19.8951 65.8221 19.9644 65.807 20.0417C65.7919 20.1191 65.805 20.1993 65.8441 20.2677C66.9037 22.2762 67.5249 28.5392 65.095 30.6755C63.1402 32.3919 59.6141 31.9354 56.0881 26.2933C53.7451 22.4007 52.5362 17.9315 52.5975 13.3893C52.6588 8.84703 53.988 4.41212 56.4352 0.584107C56.7275 0.109363 56.3256 0.0180664 55.9967 0.0180664C34.8038 7.02966 30.5652 32.0085 26.0526 41.1016C25.3036 42.6354 24.6459 43.4206 23.3487 43.3475C19.4938 43.0919 22.2708 34.8569 23.6045 31.9902C23.6223 31.9496 23.6316 31.9058 23.632 31.8614C23.6324 31.817 23.6238 31.7731 23.6067 31.7321C23.5897 31.6912 23.5645 31.6541 23.5327 31.6231C23.5009 31.5922 23.4632 31.568 23.4218 31.552C23.369 31.5215 23.3092 31.5055 23.2482 31.5055C23.1873 31.5055 23.1274 31.5215 23.0747 31.552C10.6945 45.1599 2.78202 62.2312 0.401934 80.4688C0.401934 80.0489 0.219237 81.9661 0.109618 83.3721C0.108897 83.9277 0.0722812 84.4827 0 85.0337V87.0239C0.117338 100.023 5.33856 112.455 14.539 121.644C23.7395 130.832 36.183 136.041 49.1892 136.149C62.1954 136.257 74.7235 131.255 84.0751 122.22C93.4267 113.185 98.8534 100.841 99.1863 87.8456C99.1089 87.7062 99.071 87.5484 99.0767 87.3891V87.3891ZM49.2369 110.414C44.691 110.374 40.2587 108.989 36.5 106.433C32.7413 103.878 29.8246 100.266 28.1183 96.0548C26.412 91.8435 25.9926 87.2212 26.9131 82.7718C27.8336 78.3224 30.0527 74.2453 33.2901 71.0556C36.5276 67.8658 40.6382 65.7064 45.1028 64.85C49.5675 63.9936 54.1859 64.4787 58.3749 66.244C62.5638 68.0093 66.1355 70.9755 68.6387 74.7682C71.142 78.561 72.4646 83.01 72.4395 87.5534V87.5534C72.4227 90.5785 71.8088 93.5706 70.6328 96.3581C69.4568 99.1456 67.7418 101.674 65.5863 103.797C63.4308 105.921 60.877 107.599 58.0714 108.734C55.2659 109.87 52.2637 110.441 49.2369 110.414V110.414Z" fill="white"/>
</g>
<defs>
<clipPath id="clip0">
<rect width="427" height="137" fill="white"/>
</clipPath>
</defs>
</svg>
