<svg width="449" height="512" viewBox="0 0 449 512" fill="none" xmlns="http://www.w3.org/2000/svg">
<path d="M358.883 40.864C335.587 13.76 294.915 0 238.083 0H95.6193C77.5713 0 62.4673 13.088 59.6513 31.136L0.32332 415.136C-0.92468 423.424 1.47532 431.808 6.91532 438.144C12.2593 444.416 20.0673 448 28.2593 448H129.923L153.443 295.616C153.923 293.472 155.683 291.936 157.667 291.936H199.459C301.027 291.936 361.923 242.976 380.323 146.464L381.955 137.216C388.035 95.52 381.155 66.72 358.883 40.864ZM350.339 132.224L348.899 140.384C333.571 220.8 284.707 259.904 199.491 259.904H157.699C141.219 259.904 127.171 270.88 122.755 286.56L122.499 286.496L121.827 290.88C121.795 290.912 121.795 290.944 121.795 291.008L102.499 416H32.5793L91.2673 36.032C91.6193 33.696 93.4433 32 95.6193 32H238.051C285.155 32 317.667 41.984 334.659 61.728C350.659 80.32 355.011 100.192 350.339 132.224Z" fill="white"/>
<path d="M186.387 350.681L185.744 355.147L217.418 359.707L218.061 355.241L186.387 350.681Z" fill="white"/>
<path d="M422.916 104.672C410.308 90.2079 392.516 79.4239 370.02 72.6719L360.836 103.328C377.444 108.32 390.212 115.84 398.724 125.632C414.564 144.064 419.044 164.544 414.308 196.064C414.308 196.064 413.444 201.216 412.74 204.384C397.572 284.768 348.74 323.84 263.364 323.84H221.764C203.844 323.84 188.708 336.896 185.796 355.008L166.468 480H96.4516L103.492 434.432L71.8756 429.568L64.1316 479.616C63.1076 487.936 65.6676 496.256 71.1396 502.464C76.5156 508.544 84.1636 512 92.1636 512H193.892L217.38 360C217.732 357.92 219.332 355.84 221.764 355.84H263.364C365.156 355.84 425.988 306.88 444.036 210.912C444.772 207.744 445.86 201.376 445.892 201.088C452.068 160.096 444.996 130.4 422.916 104.672Z" fill="white"/>
</svg>
