<svg width="181" height="82" viewBox="0 0 181 82" fill="none" xmlns="http://www.w3.org/2000/svg">
<g clip-path="url(#clip0)">
<path d="M41.1602 81.7402V40.2502H47.8501V43.3002C48.8695 41.8833 50.3174 40.8316 51.9801 40.3002C53.3927 39.8306 54.8716 39.5908 56.3602 39.5902C58.3886 39.568 60.3998 39.9641 62.2684 40.7538C64.1369 41.5435 65.8225 42.71 67.2201 44.1802C68.6838 45.6632 69.838 47.4224 70.6157 49.3554C71.3934 51.2885 71.779 53.3568 71.7501 55.4403C71.7526 57.4962 71.3587 59.5334 70.5902 61.4403C69.8567 63.327 68.7585 65.0507 67.3584 66.5126C65.9582 67.9746 64.2835 69.1461 62.4302 69.9602C59.1168 71.3684 55.4016 71.5107 51.9902 70.3602C50.5302 69.8902 48.4802 68.7202 47.7502 67.4302V81.7402H41.1602V81.7402ZM56.1601 45.4302C54.9896 45.3915 53.8238 45.5973 52.7373 46.0347C51.6507 46.4721 50.6674 47.1313 49.8501 47.9703C48.1341 49.9535 47.2462 52.5206 47.3701 55.1402C47.3701 57.9602 48.0402 60.7202 49.7802 62.5802C50.6074 63.4383 51.6101 64.1077 52.7199 64.5426C53.8296 64.9776 55.0202 65.1677 56.2102 65.1002C57.3666 65.106 58.512 64.8757 59.5763 64.4235C60.6407 63.9713 61.6016 63.3066 62.4002 62.4702C64.1775 60.5804 65.1339 58.0635 65.0601 55.4703C65.1719 52.7601 64.2374 50.1106 62.4501 48.0702C61.6395 47.2228 60.6621 46.5525 59.5795 46.1015C58.4969 45.6506 57.3327 45.4288 56.1601 45.4502" fill="white"/>
<path d="M117.62 81.78L123.27 68.68L110.32 40.25H117.37L126.57 61.59L135.06 40.25H142.15L124.55 81.78H117.62Z" fill="white"/>
<path d="M99.7002 70.5302V67.3802C98.6303 68.7785 97.1466 69.8038 95.4602 70.3102C93.9547 70.8285 92.3724 71.0888 90.7802 71.0802C88.7957 71.1036 86.8289 70.7048 85.0102 69.9102C81.2818 68.2534 78.3544 65.1967 76.8602 61.4002C76.0863 59.4945 75.689 57.457 75.6902 55.4002C75.6592 53.3165 76.0438 51.2474 76.8216 49.3141C77.5994 47.3807 78.7548 45.6218 80.2202 44.1402C81.6201 42.6701 83.3076 41.5039 85.1777 40.7142C87.0478 39.9246 89.0604 39.5283 91.0902 39.5502C92.5756 39.5499 94.0513 39.7897 95.4602 40.2602C97.1286 40.7857 98.5813 41.8384 99.6002 43.2602V40.2102H106.28V70.4902H99.7002V70.5302ZM85.0002 48.0502C83.2166 50.0921 82.2858 52.7413 82.4002 55.4502C82.3264 58.0434 83.2828 60.5604 85.0602 62.4502C85.8588 63.2866 86.8197 63.9512 87.884 64.4034C88.9484 64.8557 90.0938 65.0859 91.2502 65.0802C92.4388 65.1489 93.6283 64.9592 94.7366 64.5242C95.8449 64.0891 96.8457 63.4191 97.6702 62.5602C99.4202 60.7002 100.08 57.9402 100.08 55.1202C100.207 52.5036 99.3263 49.938 97.6202 47.9502C96.8026 47.1089 95.8177 46.4483 94.7292 46.0108C93.6407 45.5734 92.4726 45.3688 91.3002 45.4102C90.126 45.3874 88.9599 45.6085 87.8755 46.0595C86.7911 46.5104 85.812 47.1815 85.0002 48.0302" fill="white"/>
<path d="M149.16 21.0398L148.82 0.819824H155.2V26.3298H146.02L139.67 5.38982H139.51L139.87 26.3298H133.54V0.819824H143.09L149.02 21.0398H149.16Z" fill="white"/>
<path d="M33.2698 3.19982L29.7498 26.5598H22.7998L27.5598 0.819824H39.0298L43.7898 26.5598H36.8598L33.4198 3.19982H33.2698Z" fill="white"/>
<path d="M63.3002 20.5198L66.4902 0.819824H76.9802L77.5602 26.5598H71.1102L70.9302 3.41982H70.8002L66.5002 26.5598H59.9802L55.6602 3.41982H55.5102L55.3502 26.5598H48.9102L49.5002 0.819824H60.0002L63.1702 20.5198H63.3002Z" fill="white"/>
<path d="M117.3 22.7398C117.868 22.7932 118.435 22.6348 118.893 22.2951C119.351 21.9555 119.667 21.4585 119.78 20.8998C119.824 20.5684 119.841 20.234 119.83 19.8998V0.819824H126.37V19.2798C126.37 19.7598 126.32 20.7198 126.3 20.9798C125.86 25.7898 122.04 27.3398 117.3 27.3398C112.56 27.3398 108.77 25.7898 108.3 20.9798C108.251 20.4146 108.231 19.8472 108.24 19.2798V0.819824H114.76V19.8698C114.74 20.204 114.757 20.5394 114.81 20.8698C114.915 21.437 115.23 21.944 115.691 22.2903C116.152 22.6367 116.727 22.7971 117.3 22.7398" fill="white"/>
<path d="M11.95 19.2998C12.15 19.9184 12.1674 20.5816 12 21.2098C11.8815 21.7667 11.5544 22.2572 11.0859 22.5807C10.6173 22.9042 10.0428 23.0363 9.48 22.9498C9.15268 22.9886 8.82085 22.9565 8.50699 22.8559C8.19313 22.7552 7.90457 22.5883 7.66086 22.3664C7.41714 22.1445 7.22395 21.8728 7.09441 21.5697C6.96486 21.2667 6.90198 20.9393 6.91 20.6098V18.1098H0V20.1098C0 25.8698 4.51 27.5898 9.34 27.5898C14.17 27.5898 17.85 26.0098 18.45 21.7198C18.6907 20.3201 18.6907 18.8895 18.45 17.4898C17.37 12.0798 7.59 10.4898 6.86 7.48978C6.75744 7.04562 6.75744 6.58393 6.86 6.13977C6.95111 5.60236 7.24665 5.12108 7.68472 4.79672C8.12279 4.47237 8.66938 4.33011 9.20999 4.39978C9.52564 4.37041 9.8439 4.40961 10.143 4.51468C10.4421 4.61975 10.7149 4.78822 10.9429 5.00854C11.1708 5.22887 11.3484 5.49584 11.4635 5.7912C11.5787 6.08656 11.6287 6.40333 11.61 6.71979V8.32977H18.04V6.51978C18.04 0.909775 13.04 0.0297852 9.34 0.0297852C4.77 0.0297852 1.03 1.54977 0.339996 5.75977C0.130996 6.90027 0.130996 8.06927 0.339996 9.20978C1.47 14.4898 10.62 15.9998 11.95 19.3298" fill="white"/>
<path d="M95.7003 19.2701C95.8936 19.8792 95.9143 20.53 95.7603 21.1501C95.6398 21.6953 95.3166 22.1742 94.8561 22.4899C94.3956 22.8056 93.8323 22.9343 93.2803 22.8501C92.9542 22.8935 92.6226 22.8658 92.3082 22.7689C91.9938 22.6719 91.704 22.5081 91.4589 22.2887C91.2138 22.0692 91.0191 21.7993 90.8882 21.4975C90.7572 21.1956 90.6931 20.8691 90.7003 20.5401V18.0602H83.8604V20.0602C83.8604 25.7601 88.3303 27.4501 93.1303 27.4501C97.7303 27.4501 101.52 25.8902 102.13 21.6302C102.372 20.2406 102.372 18.8197 102.13 17.4301C101.06 12.1101 91.3803 10.5301 90.6703 7.52014C90.5815 7.08463 90.5815 6.63564 90.6703 6.20013C90.766 5.671 91.0609 5.1987 91.4944 4.88055C91.9279 4.56241 92.4669 4.42268 93.0003 4.49014C93.3128 4.45918 93.6283 4.49642 93.925 4.59927C94.2217 4.70213 94.4926 4.86815 94.7188 5.08588C94.9451 5.3036 95.1215 5.56784 95.2357 5.86035C95.3499 6.15287 95.3992 6.4667 95.3803 6.78015V8.37015H101.7V6.58014C101.7 1.03014 96.7004 0.160156 93.1104 0.160156C88.5804 0.160156 84.8603 1.64013 84.2003 5.82013C83.9729 6.95401 83.9899 8.12339 84.2503 9.25015C85.3603 14.4802 94.4103 15.9802 95.7203 19.2502" fill="white"/>
<path d="M171.02 22.4401C171.611 22.5115 172.207 22.3606 172.693 22.0169C173.179 21.6732 173.52 21.1611 173.65 20.5801C173.691 20.2484 173.711 19.9144 173.71 19.5801V15.8501H171.08V12.0801H180.2V18.9901C180.196 19.5615 180.162 20.1322 180.1 20.7001C179.68 25.3601 175.61 27.0501 171.03 27.0501C166.45 27.0501 162.43 25.3601 162.03 20.7001C161.956 20.1331 161.923 19.5617 161.93 18.9901V8.18011C161.933 7.61479 161.973 7.05029 162.05 6.49011C162.61 1.65011 166.5 0.120117 171.05 0.120117C175.6 0.120117 179.64 1.64011 180.1 6.49011C180.16 7.05131 180.177 7.61634 180.15 8.18011V9.02011H173.7V7.58011C173.701 7.24467 173.671 6.90981 173.61 6.58011C173.489 6.00426 173.157 5.49429 172.68 5.15021C172.203 4.80612 171.614 4.65274 171.03 4.72012C170.451 4.66731 169.873 4.82699 169.404 5.16931C168.934 5.51163 168.606 6.01314 168.48 6.58011C168.403 6.9821 168.37 7.39105 168.38 7.80011V19.5801C168.38 19.9001 168.38 20.2701 168.43 20.5801C168.559 21.163 168.902 21.6766 169.39 22.0206C169.878 22.3645 170.477 22.5141 171.07 22.4401" fill="white"/>
</g>
<defs>
<clipPath id="clip0">
<rect width="180.2" height="81.77" fill="white"/>
</clipPath>
</defs>
</svg>
